<?xml version="1.0" standalone="no"?><!DOCTYPE svg PUBLIC "-//W3C//DTD SVG 1.1//EN" "http://www.w3.org/Graphics/SVG/1.1/DTD/svg11.dtd"><svg t="1582402976335" class="icon" viewBox="0 0 1024 1024" version="1.1" xmlns="http://www.w3.org/2000/svg" p-id="2434" xmlns:xlink="http://www.w3.org/1999/xlink" width="200" height="200"><defs><style type="text/css"></style></defs><path d="M511.488 0C228.992 0 0 229.248 0 512c0 282.688 228.992 511.936 511.488 512H963.52a38.784 38.784 0 0 0 27.008-66.56l-185.984-181.12a38.72 38.72 0 1 0-54.016 55.68l117.632 114.368h-348.8a32.384 32.384 0 0 0-3.84 0 433.664 433.664 0 0 1-411.776-287.744 434.304 434.304 0 0 1 132.736-481.536 433.28 433.28 0 0 1 497.6-37.504 434.24 434.24 0 0 1 203.392 456.128 38.848 38.848 0 1 0 76.16 14.848 512.832 512.832 0 0 0-107.264-423.808A511.808 511.808 0 0 0 511.488 0z m18.176 856.576a40.96 40.96 0 0 0 40.64-40.64v-105.728h110.976a40.64 40.64 0 0 0 0-81.28H570.304V558.464h108.288a40.704 40.704 0 0 0 0-81.344H569.92a36.48 36.48 0 0 0 5.12-4.48L709.12 338.56a40.704 40.704 0 0 0-57.472-57.472L529.408 403.392l-127.872-128a40.576 40.576 0 0 0-56.96 57.728L478.592 467.2a40.256 40.256 0 0 0 16.256 9.92H380.736a40.704 40.704 0 0 0 0 81.28h108.352v70.528H383.616a40.64 40.64 0 0 0 0 81.28h105.472v105.728a40.96 40.96 0 0 0 40.576 40.64zM524.16 476.736l2.112 4.928h-6.4c1.408 0 2.88-1.92 4.288-4.928z" p-id="2435"></path></svg>