<?xml version="1.0" standalone="no"?><!DOCTYPE svg PUBLIC "-//W3C//DTD SVG 1.1//EN" "http://www.w3.org/Graphics/SVG/1.1/DTD/svg11.dtd"><svg t="1582403274023" class="icon" viewBox="0 0 1024 1024" version="1.1" xmlns="http://www.w3.org/2000/svg" p-id="4237" xmlns:xlink="http://www.w3.org/1999/xlink" width="200" height="200"><defs><style type="text/css"></style></defs><path d="M115.4 517.9c4.1 7.8 13.9 10.8 21.6 6.6 0 0 212.2-109.6 341.6-197.5C601 243.9 698.9 154.7 736.2 119.4v120.5c0 8.8 7.2 16 16 16s16-7.2 16-16v-160c0-8.8-7.2-16-16-16H592.4c-8.8 0-16 7.2-16 16s7.2 16 16 16h122.3c-45.7 42-157.1 141-277.2 221-182 121.3-315.4 179.5-315.4 179.5-7.8 4-10.8 13.7-6.7 21.5zM860.9 660.6c-3.9-3.9-10.3-3.9-14.1 0.1l-75.3 76c-1.4-0.3-2.8-0.5-4.2-0.5-1.2 0-2.3 0.1-3.4 0.3l-75.1-75.8c-3.9-3.9-10.2-3.9-14.1-0.1-3.9 3.9-3.9 10.2-0.1 14.1L742 743h-57.3c-6.3 0-11.5 5.2-11.5 11.5v1.3c0 6.3 5.2 11.5 11.5 11.5h63.5v39.3h-39.8c-6.3 0-11.5 5.2-11.5 11.5v1.3c0 6.3 5.2 11.5 11.5 11.5h39.8V874c0 10.4 8.5 19 19 19 10.4 0 19-8.5 19-19v-43.3h41.2c6.3 0 11.5-5.2 11.5-11.5V818c0-6.3-5.2-11.5-11.5-11.5h-41.2v-39.3H851c6.3 0 11.5-5.2 11.5-11.5v-1.3c0-6.3-5.2-11.5-11.5-11.5h-57.7l67.7-68.2c3.8-3.9 3.8-10.2-0.1-14.1z" p-id="4238"></path><path d="M768.3 576h-0.4V386.4c0-38.6-27.4-67.7-63.7-67.7h-33c-36.3 0-63.7 29.1-63.7 67.7v276.9c-19.6 30.1-31 66-31 104.5 0 35 9.4 67.7 25.7 95.9h-58.1V511.2c0-34.6-28.3-63-63-63h-32.7c-34.7 0-63 28.4-63 63v352.6h-65.1V639.2c0-34.6-28.3-63-63-63h-34.7c-34.6 0-63 28.4-63 63v224.6H80.2c-8.8 0-16 7.2-16 16s7.2 16 16 16h545.2c35.1 39.2 86.1 63.8 142.8 63.8 105.9 0 191.8-85.9 191.8-191.8 0.1-105.9-85.8-191.8-191.7-191.8z m-350.9-64.8c0-8.2 3.2-16 9.1-21.9 5.9-5.9 13.7-9.1 21.9-9.1h32.7c8.2 0 16 3.2 21.9 9.1 5.9 5.9 9.1 13.7 9.1 21.9v352.3h-94.7V511.2z m-225.7 128c0-8.2 3.2-16 9.1-21.9 5.9-5.9 13.7-9.1 21.9-9.1h34.7c8.2 0 16 3.2 21.9 9.1 5.9 5.9 9.1 13.7 9.1 21.9v224.3h-96.7V639.2z m479.5-288.4h33c15.7 0 31.7 12.3 31.7 35.7v192.3c-36.7 6.3-69.9 23-96.4 47V386.4c0-23.4 15.9-35.6 31.7-35.6z m210.1 530c-30.2 30.2-70.3 46.8-113 46.8s-82.8-16.6-113-46.8c-30.2-30.2-46.8-70.3-46.8-113s16.6-82.8 46.8-113c30.2-30.2 70.3-46.8 113-46.8s82.8 16.6 113 46.8c30.2 30.2 46.8 70.3 46.8 113s-16.6 82.8-46.8 113z" p-id="4239"></path></svg>