<?xml version="1.0" standalone="no"?><!DOCTYPE svg PUBLIC "-//W3C//DTD SVG 1.1//EN" "http://www.w3.org/Graphics/SVG/1.1/DTD/svg11.dtd"><svg t="1582402938127" class="icon" viewBox="0 0 1024 1024" version="1.1" xmlns="http://www.w3.org/2000/svg" p-id="1624" xmlns:xlink="http://www.w3.org/1999/xlink" width="200" height="200"><defs><style type="text/css"></style></defs><path d="M1010.245284 78.070241c10.014748 2.015748 14.014248 11.9985 11.9985 22.013249l-43.994501 153.99675c-2.015748 6.015248-6.015248 11.9985-11.9985 14.014248s-14.014248 0-18.013748-3.9995l-50.009749-46.010249-103.987002 305.977753c-2.015748 6.015248-6.015248 10.014748-11.9985 11.9985s-14.014248-2.015748-18.013748-6.015248l-78.006249-86.005249c-15.998 11.9985-34.011749 19.9975-54.009249 23.997v537.948757c0 10.014748-7.999 18.013748-18.013748 18.013748s-18.013748-7.999-18.013749-18.013748V468.037495c-6.015248-2.015748-11.9985-2.015748-18.013748-3.9995l-79.990001 181.993251c-2.015748 3.9995-6.015248 7.999-10.014748 10.014748s-11.9985 0-15.998001-2.015748l-63.992001-38.011248-43.9945 70.007249c-3.9995 6.015248-11.9985 7.999-18.013749 7.999s-11.9985-3.9995-14.014248-10.014748l-43.994501-102.00325-43.9945 157.996251a19.261592 19.261592 0 0 1-18.013748 14.014248h-47.994001l-47.994001 47.994001c-3.9995 3.9995-7.999 6.015248-14.014248 6.015248s-10.014748-3.9995-14.014248-7.999l-31.996001-42.010749-35.9955 79.990001c-2.015748 6.015248-10.014748 11.9985-15.998001 11.9985-2.015748 0-6.015248 0-7.999-2.015748-10.014748-3.9995-11.9985-14.014248-7.999-23.997l47.994001-110.00225c2.015748-6.015248 10.014748-10.014748 15.998-10.014748s11.9985 2.015748 15.998 7.999l38.011249 50.009749 38.011248-38.011249a21.661292 21.661292 0 0 1 14.014249-6.015248h39.995l54.009249-193.991751c2.015748-7.999 7.999-14.014248 15.998-14.014248s14.014248 6.015248 18.013749 11.9985l50.009748 115.985502 38.011249-58.008749c6.015248-7.999 15.998-10.014748 23.997-3.9995l62.008249 38.011249 71.991002-167.979003c-26.012748-19.9975-43.994501-51.993501-43.994501-87.989001 0-55.993001 39.995001-103.987002 94.004249-111.986002V18.013748c0-10.014748 7.999-18.013748 18.013749-18.013748s18.013748 7.999 18.013748 18.013748v227.971504c54.009249 7.999 94.004249 55.993001 94.004249 111.986002 0 22.013248-6.015248 39.995001-15.998 58.008748l59.992501 67.991502 102.00325-303.962005c2.015748-6.015248 6.015248-10.014748 11.9985-11.9985s11.9985 0 15.998 3.9995l51.993501 46.010248 35.9955-127.984002c2.015748-10.014748 11.9985-14.014248 22.013249-11.9985zM614.294778 434.025747c42.010749 0 75.990501-34.011749 75.990501-75.990501S656.27353 280.028996 614.294778 280.028996s-75.990501 35.995501-75.990502 78.00625 34.011749 75.990501 75.990502 75.990501z m-18.013749-75.990501c0-11.9985 6.015248-18.013748 18.013749-18.013749s18.013748 6.015248 18.013748 18.013749-6.015248 18.013748-18.013748 18.013748-18.013748-6.015248-18.013749-18.013748z" p-id="1625"></path></svg>